<svg xmlns="http://www.w3.org/2000/svg" width="29" height="30" viewBox="0 0 29 30" fill="none">
  <path d="M26.6416 20.054C20.9273 23.3835 10.1509 23.204 6.78921 22.0841C6.60598 22.7229 7.48197 26.5802 11.3998 27.3579C17.6427 28.597 22.9327 22.6141 26.6416 20.054Z" fill="black"/>
  <path d="M12.9714 2.6416C16.846 3.64389 25.4477 11.0976 6.28729 16.8009C8.59089 15.6217 13.7673 8.18039 12.9714 2.6416Z" fill="black"/>
  <path d="M12.3659 16.0861C12.3111 16.1101 12.2618 16.1481 12.225 16.1951C10.3895 18.5383 8.70394 20.0165 7.39563 20.6863C19.7935 20.6863 20.8602 13.9803 18.1161 12.0698C17.0303 13.429 15.6494 14.6513 12.3659 16.0861Z" fill="black"/>
</svg>